# MagicaVoxel @ ephtracy

# material
mtllib simplePath.mtl
usemtl palette

# normals
vn -1 0 0
vn 1 0 0
vn 0 0 1
vn 0 0 -1
vn 0 -1 0
vn 0 1 0

# texcoords
vt 0.486328 0.5
vt 0.923828 0.5

# verts
v -63 0 63
v -63 0 -63
v -63 1 63
v -63 1 -63
v -35 1 -12
v -35 1 -63
v -35 6 -12
v -35 6 -63
v -11 1 63
v -11 1 20
v -11 6 63
v -11 6 20
v -10 1 -34
v -10 1 -63
v -10 6 -34
v -10 6 -63
v 12 1 20
v 12 1 -12
v 12 6 20
v 12 6 -12
v 13 1 63
v 13 1 39
v 13 6 63
v 13 6 39
v 38 1 39
v 38 1 -34
v 38 6 39
v 38 6 -34
v -34 1 -13
v -34 1 -63
v -34 6 -13
v -34 6 -63
v -10 1 63
v -10 1 21
v -10 6 63
v -10 6 21
v -9 1 -35
v -9 1 -63
v -9 6 -35
v -9 6 -63
v 13 1 21
v 13 1 -13
v 13 6 21
v 13 6 -13
v 14 1 63
v 14 1 40
v 14 6 63
v 14 6 40
v 39 1 40
v 39 1 -35
v 39 6 40
v 39 6 -35
v 63 0 63
v 63 0 -63
v 63 1 63
v 63 1 -63
v -63 0 63
v -63 1 63
v -11 1 63
v -11 6 63
v -10 1 63
v -10 6 63
v 13 1 63
v 13 6 63
v 14 1 63
v 14 6 63
v 63 0 63
v 63 1 63
v 14 1 40
v 14 6 40
v 39 1 40
v 39 6 40
v -10 1 21
v -10 6 21
v 13 1 21
v 13 6 21
v -35 1 -12
v -35 6 -12
v 12 1 -12
v 12 6 -12
v -10 1 -34
v -10 6 -34
v 38 1 -34
v 38 6 -34
v 13 1 39
v 13 6 39
v 38 1 39
v 38 6 39
v -11 1 20
v -11 6 20
v 12 1 20
v 12 6 20
v -34 1 -13
v -34 6 -13
v 13 1 -13
v 13 6 -13
v -9 1 -35
v -9 6 -35
v 39 1 -35
v 39 6 -35
v -63 0 -63
v -63 1 -63
v -35 1 -63
v -35 6 -63
v -34 1 -63
v -34 6 -63
v -10 1 -63
v -10 6 -63
v -9 1 -63
v -9 6 -63
v 63 0 -63
v 63 1 -63
v -63 0 63
v 63 0 63
v -63 0 -63
v 63 0 -63
v -63 1 63
v -11 1 63
v -10 1 63
v 13 1 63
v 14 1 63
v 63 1 63
v 14 1 40
v 39 1 40
v 13 1 39
v 38 1 39
v -10 1 21
v 13 1 21
v -11 1 20
v 12 1 20
v -35 1 -12
v 12 1 -12
v -34 1 -13
v 13 1 -13
v -10 1 -34
v 38 1 -34
v -9 1 -35
v 39 1 -35
v -63 1 -63
v -35 1 -63
v -34 1 -63
v -10 1 -63
v -9 1 -63
v 63 1 -63
v -11 6 63
v -10 6 63
v 13 6 63
v 14 6 63
v 14 6 40
v 39 6 40
v 13 6 39
v 38 6 39
v -10 6 21
v 13 6 21
v -11 6 20
v 12 6 20
v -35 6 -12
v 12 6 -12
v -34 6 -13
v 13 6 -13
v -10 6 -34
v 38 6 -34
v -9 6 -35
v 39 6 -35
v -35 6 -63
v -34 6 -63
v -10 6 -63
v -9 6 -63

# faces
f 3/1/1 2/1/1 1/1/1
f 4/1/1 2/1/1 3/1/1
f 7/2/1 6/2/1 5/2/1
f 8/2/1 6/2/1 7/2/1
f 11/2/1 10/2/1 9/2/1
f 12/2/1 10/2/1 11/2/1
f 15/2/1 14/2/1 13/2/1
f 16/2/1 14/2/1 15/2/1
f 19/2/1 18/2/1 17/2/1
f 20/2/1 18/2/1 19/2/1
f 23/2/1 22/2/1 21/2/1
f 24/2/1 22/2/1 23/2/1
f 27/2/1 26/2/1 25/2/1
f 28/2/1 26/2/1 27/2/1
f 29/2/2 30/2/2 31/2/2
f 31/2/2 30/2/2 32/2/2
f 33/2/2 34/2/2 35/2/2
f 35/2/2 34/2/2 36/2/2
f 37/2/2 38/2/2 39/2/2
f 39/2/2 38/2/2 40/2/2
f 41/2/2 42/2/2 43/2/2
f 43/2/2 42/2/2 44/2/2
f 45/2/2 46/2/2 47/2/2
f 47/2/2 46/2/2 48/2/2
f 49/2/2 50/2/2 51/2/2
f 51/2/2 50/2/2 52/2/2
f 53/1/2 54/1/2 55/1/2
f 55/1/2 54/1/2 56/1/2
f 59/1/3 58/1/3 57/1/3
f 61/1/3 59/1/3 57/1/3
f 61/2/3 60/2/3 59/2/3
f 62/2/3 60/2/3 61/2/3
f 63/1/3 61/1/3 57/1/3
f 65/1/3 63/1/3 57/1/3
f 65/2/3 64/2/3 63/2/3
f 66/2/3 64/2/3 65/2/3
f 67/1/3 65/1/3 57/1/3
f 68/1/3 65/1/3 67/1/3
f 71/2/3 70/2/3 69/2/3
f 72/2/3 70/2/3 71/2/3
f 75/2/3 74/2/3 73/2/3
f 76/2/3 74/2/3 75/2/3
f 79/2/3 78/2/3 77/2/3
f 80/2/3 78/2/3 79/2/3
f 83/2/3 82/2/3 81/2/3
f 84/2/3 82/2/3 83/2/3
f 85/2/4 86/2/4 87/2/4
f 87/2/4 86/2/4 88/2/4
f 89/2/4 90/2/4 91/2/4
f 91/2/4 90/2/4 92/2/4
f 93/2/4 94/2/4 95/2/4
f 95/2/4 94/2/4 96/2/4
f 97/2/4 98/2/4 99/2/4
f 99/2/4 98/2/4 100/2/4
f 101/1/4 102/1/4 103/1/4
f 101/1/4 103/1/4 105/1/4
f 103/2/4 104/2/4 105/2/4
f 105/2/4 104/2/4 106/2/4
f 101/1/4 105/1/4 107/1/4
f 101/1/4 107/1/4 109/1/4
f 107/2/4 108/2/4 109/2/4
f 109/2/4 108/2/4 110/2/4
f 101/1/4 109/1/4 111/1/4
f 111/1/4 109/1/4 112/1/4
f 115/1/5 114/1/5 113/1/5
f 116/1/5 114/1/5 115/1/5
f 121/1/6 122/1/6 123/1/6
f 123/1/6 122/1/6 124/1/6
f 119/1/6 120/1/6 125/1/6
f 119/1/6 125/1/6 127/1/6
f 125/1/6 126/1/6 127/1/6
f 127/1/6 126/1/6 128/1/6
f 117/1/6 118/1/6 129/1/6
f 117/1/6 129/1/6 131/1/6
f 129/1/6 130/1/6 131/1/6
f 131/1/6 130/1/6 132/1/6
f 128/1/6 126/1/6 134/1/6
f 133/1/6 134/1/6 135/1/6
f 134/1/6 126/1/6 136/1/6
f 135/1/6 134/1/6 136/1/6
f 124/1/6 122/1/6 138/1/6
f 117/1/6 131/1/6 139/1/6
f 139/1/6 131/1/6 140/1/6
f 133/1/6 135/1/6 141/1/6
f 141/1/6 135/1/6 142/1/6
f 137/1/6 138/1/6 143/1/6
f 138/1/6 122/1/6 144/1/6
f 143/1/6 138/1/6 144/1/6
f 147/2/6 148/2/6 149/2/6
f 147/2/6 149/2/6 151/2/6
f 149/2/6 150/2/6 151/2/6
f 151/2/6 150/2/6 152/2/6
f 145/2/6 146/2/6 153/2/6
f 145/2/6 153/2/6 155/2/6
f 153/2/6 154/2/6 155/2/6
f 155/2/6 154/2/6 156/2/6
f 156/2/6 154/2/6 158/2/6
f 157/2/6 158/2/6 159/2/6
f 158/2/6 154/2/6 160/2/6
f 159/2/6 158/2/6 160/2/6
f 152/2/6 150/2/6 162/2/6
f 161/2/6 162/2/6 163/2/6
f 162/2/6 150/2/6 164/2/6
f 163/2/6 162/2/6 164/2/6
f 157/2/6 159/2/6 165/2/6
f 165/2/6 159/2/6 166/2/6
f 161/2/6 163/2/6 167/2/6
f 167/2/6 163/2/6 168/2/6
